<?xml version="1.0" standalone="no"?><!DOCTYPE svg PUBLIC "-//W3C//DTD SVG 1.1//EN" "http://www.w3.org/Graphics/SVG/1.1/DTD/svg11.dtd"><svg t="1596695965404" class="icon" viewBox="0 0 1024 1024" version="1.1" xmlns="http://www.w3.org/2000/svg" p-id="14719" width="128" height="128" xmlns:xlink="http://www.w3.org/1999/xlink"><defs><style type="text/css"></style></defs><path d="M128.256 624.19456a32 32 0 0 0-32 32v192a32 32 0 1 0 64 0v-192a32 32 0 0 0-32-32z m256-224.06656a32 32 0 0 0-32 32v416a32 32 0 0 0 64 0V432.128a32 32 0 0 0-32-32z m256 224.06656a32 32 0 0 0-32 32v192a32 32 0 1 0 64 0v-192a32 32 0 0 0-32-32z m256-224.06656a32 32 0 0 0-32 32v416a32 32 0 0 0 64 0V432.128a32 32 0 0 0-32-32z" fill="#1296db" p-id="14720"></path><path d="M907.392 146.432a32.768 32.768 0 0 0-15.872-2.24256H768.256a32 32 0 1 0 0 64h47.616l-176.128 176.06656-230.85056-230.84544a33.46944 33.46944 0 0 0-25.088-9.53344 33.01888 33.01888 0 0 0-24.704 9.472l-253.696 253.75744a33.14688 33.14688 0 0 0-2.52928 46.81728 33.14688 33.14688 0 0 0 49.32096 0.03072l231.23456-231.296 231.168 231.168c6.85056 6.84544 16 9.92256 25.08288 9.472a32.92672 32.92672 0 0 0 25.088-9.472l199.424-199.424V304.128a32 32 0 1 0 64 0v-128a31.68256 31.68256 0 0 0-20.80256-29.696z" fill="#1296db" p-id="14721"></path></svg>