<?xml version="1.0" standalone="no"?><!DOCTYPE svg PUBLIC "-//W3C//DTD SVG 1.1//EN" "http://www.w3.org/Graphics/SVG/1.1/DTD/svg11.dtd"><svg t="1596616831784" class="icon" viewBox="0 0 1024 1024" version="1.1" xmlns="http://www.w3.org/2000/svg" p-id="17043" xmlns:xlink="http://www.w3.org/1999/xlink" width="200" height="200"><defs><style type="text/css"></style></defs><path d="M544 378.24h-234.666667a32 32 0 0 0 0 64h234.666667a32 32 0 0 0 0-64zM544 527.573333h-234.666667a32 32 0 0 0 0 64h234.666667a32 32 0 0 0 0-64zM544 676.906667h-234.666667a32 32 0 0 0 0 64h234.666667a32 32 0 0 0 0-64z" fill="#333333" p-id="17044"></path><path d="M928 890.24h-21.333333v-452.266667a74.666667 74.666667 0 0 0-44.373334-68.266666l-147.626666-65.493334V144.426667a74.666667 74.666667 0 0 0-92.16-72.533334l-448 106.666667a74.453333 74.453333 0 0 0-57.173334 72.533333v639.146667h-21.333333a32 32 0 0 0 0 64h832a32 32 0 0 0 0-64z m-277.333333-614.613333v614.613333h-469.333334V251.946667a10.666667 10.666667 0 0 1 8.106667-10.453334l448-106.666666a10.24 10.24 0 0 1 9.173333 1.92 10.453333 10.453333 0 0 1 4.053334 8.32z m192 614.613333h-128V374.186667l121.6 53.973333a10.666667 10.666667 0 0 1 6.4 9.813333z" fill="#333333" p-id="17045"></path></svg>