<?xml version="1.0" standalone="no"?><!DOCTYPE svg PUBLIC "-//W3C//DTD SVG 1.1//EN" "http://www.w3.org/Graphics/SVG/1.1/DTD/svg11.dtd"><svg t="1596715323161" class="icon" viewBox="0 0 1024 1024" version="1.1" xmlns="http://www.w3.org/2000/svg" p-id="8480" xmlns:xlink="http://www.w3.org/1999/xlink" width="64" height="64"><defs><style type="text/css"></style></defs><path d="M886.4 128H608v64h233.6l104.64 288H672v32a160 160 0 0 1-320 0v-32H77.76L182.4 192H416V128H137.6L0 506.24V1024h1024V506.24zM64 960V544h226.24a224 224 0 0 0 443.52 0H960v416z" fill="#ffffff" p-id="8481"></path><path d="M393.28 438.72l118.72 118.4 118.72-118.4-45.44-45.44-41.28 41.6V0h-64v434.88l-41.28-41.6-45.44 45.44z" fill="#ffffff" p-id="8482"></path></svg>