<?xml version="1.0" standalone="no"?><!DOCTYPE svg PUBLIC "-//W3C//DTD SVG 1.1//EN" "http://www.w3.org/Graphics/SVG/1.1/DTD/svg11.dtd"><svg t="1596717503421" class="icon" viewBox="0 0 1024 1024" version="1.1" xmlns="http://www.w3.org/2000/svg" p-id="2570" width="200" height="200" xmlns:xlink="http://www.w3.org/1999/xlink"><defs><style type="text/css"></style></defs><path d="M925.538462 551.384615v319.212308c0 45.134769-186.840615 94.326154-413.538462 94.326154S98.461538 915.731692 98.461538 870.596923V551.384615h-39.384615v319.212308C59.076923 951.414154 260.135385 1004.307692 512 1004.307692s452.923077-52.893538 452.923077-133.710769V551.384615h-39.384615z" fill="#000000" p-id="2571"></path><path d="M925.538462 315.076923v319.212308c0 45.134769-186.840615 94.326154-413.538462 94.326154S98.461538 679.424 98.461538 634.289231V315.076923h-39.384615v319.212308C59.076923 715.106462 260.135385 768 512 768s452.923077-52.893538 452.923077-133.710769V315.076923h-39.384615z" fill="#000000" p-id="2572"></path><path d="M925.538462 157.538462v236.307692c0 47.576615-186.525538 98.461538-413.538462 98.461538S98.461538 441.422769 98.461538 393.846154V157.538462h-39.384615v236.307692c0 82.904615 201.373538 137.846154 452.923077 137.846154s452.923077-54.941538 452.923077-137.846154V157.538462h-39.384615z" fill="#000000" p-id="2573"></path><path d="M512 295.384615c251.549538 0 452.923077-54.941538 452.923077-137.846153S763.549538 19.692308 512 19.692308 59.076923 74.633846 59.076923 157.538462 260.450462 295.384615 512 295.384615z m0-39.384615C284.987077 256 98.461538 205.115077 98.461538 157.538462S284.987077 59.076923 512 59.076923 925.538462 109.961846 925.538462 157.538462 739.012923 256 512 256z" fill="#000000" p-id="2574"></path></svg>